<?xml version="1.0" encoding="utf-8"?>
<!-- Generator: Adobe Illustrator 19.0.0, SVG Export Plug-In . SVG Version: 6.00 Build 0)  -->
<svg version="1.1" id="Layer_1" xmlns="http://www.w3.org/2000/svg" xmlns:xlink="http://www.w3.org/1999/xlink" x="0px" y="0px"
	 viewBox="0 0 500 500" style="enable-background:new 0 0 500 500;" xml:space="preserve">
<style type="text/css">
	.st0{fill:#FFC300;}
</style>
<g id="XMLID_1_">
	<path id="XMLID_6_" class="st0" d="M305,130c27.6,0,50,116.4,50,260h40c0-154.6-40.3-280-90-280c-28.3,0-53.5,37.7-70,96.6
		c-16.5-58.9-41.7-96.6-70-96.6c-49.7,0-90,125.4-90,280h40c0-143.6,22.4-260,50-260c27.6,0,50,107.4,50,240h40
		C255,237.5,277.4,130,305,130"/>
	<path class="st0" d="M415,370c5.4,0,10,4.3,10,9.9c0,5.7-4.5,10-10,10c-5.4,0-10-4.3-10-10C405,374.3,409.6,370,415,370 M415,388.5
		c4.6,0,8.2-3.7,8.2-8.6c0-4.8-3.6-8.5-8.2-8.5c-4.7,0-8.2,3.7-8.2,8.5C406.8,384.8,410.4,388.5,415,388.5z M411.1,374.1h4.5
		c2.8,0,4.1,1.1,4.1,3.3c0,2.1-1.3,3-3,3.2l3.3,5.2H418l-3.2-5H413v5h-1.8L411.1,374.1L411.1,374.1z M413,379.3h1.9
		c1.6,0,3.1-0.1,3.1-1.9c0-1.6-1.3-1.8-2.6-1.8H413L413,379.3L413,379.3z"/>
</g>
</svg>
